<?xml version="1.0" encoding="UTF-8" standalone="no"?>
<!-- Created with Inkscape (http://www.inkscape.org/) -->

<svg
   xmlns:dc="http://purl.org/dc/elements/1.1/"
   xmlns:cc="http://creativecommons.org/ns#"
   xmlns:rdf="http://www.w3.org/1999/02/22-rdf-syntax-ns#"
   xmlns:svg="http://www.w3.org/2000/svg"
   xmlns="http://www.w3.org/2000/svg"
   xmlns:sodipodi="http://sodipodi.sourceforge.net/DTD/sodipodi-0.dtd"
   xmlns:inkscape="http://www.inkscape.org/namespaces/inkscape"
   id="svg3390"
   version="1.1"
   inkscape:version="0.91 r13725"
   width="126.51334"
   height="124.85067"
   viewBox="0 0 126.51334 124.85067"
   sodipodi:docname="eltp_logo.svg">
  <metadata
     id="metadata3396">
    <rdf:RDF>
      <cc:Work
         rdf:about="">
        <dc:format>image/svg+xml</dc:format>
        <dc:type
           rdf:resource="http://purl.org/dc/dcmitype/StillImage" />
        <dc:title></dc:title>
        <cc:license
           rdf:resource="http://creativecommons.org/licenses/by-nc-sa/3.0/" />
      </cc:Work>
      <cc:License
         rdf:about="http://creativecommons.org/licenses/by-nc-sa/3.0/">
        <cc:permits
           rdf:resource="http://creativecommons.org/ns#Reproduction" />
        <cc:permits
           rdf:resource="http://creativecommons.org/ns#Distribution" />
        <cc:requires
           rdf:resource="http://creativecommons.org/ns#Notice" />
        <cc:requires
           rdf:resource="http://creativecommons.org/ns#Attribution" />
        <cc:prohibits
           rdf:resource="http://creativecommons.org/ns#CommercialUse" />
        <cc:permits
           rdf:resource="http://creativecommons.org/ns#DerivativeWorks" />
        <cc:requires
           rdf:resource="http://creativecommons.org/ns#ShareAlike" />
      </cc:License>
    </rdf:RDF>
  </metadata>
  <defs
     id="defs3394" />
  <sodipodi:namedview
     pagecolor="#ffffff"
     bordercolor="#666666"
     borderopacity="1"
     objecttolerance="10"
     gridtolerance="10"
     guidetolerance="10"
     inkscape:pageopacity="0"
     inkscape:pageshadow="2"
     inkscape:window-width="3840"
     inkscape:window-height="2112"
     id="namedview3392"
     showgrid="false"
     inkscape:zoom="11.313709"
     inkscape:cx="-11.018173"
     inkscape:cy="69.421226"
     inkscape:window-x="0"
     inkscape:window-y="48"
     inkscape:window-maximized="1"
     inkscape:current-layer="g3422"
     fit-margin-top="0"
     fit-margin-left="0"
     fit-margin-right="0"
     fit-margin-bottom="0">
    <sodipodi:guide
       position="-30.368697,-47.032456"
       orientation="0,187.5"
       id="guide3400" />
    <sodipodi:guide
       position="157.1313,-47.032456"
       orientation="-187.5,0"
       id="guide3402" />
    <sodipodi:guide
       position="157.1313,140.46754"
       orientation="0,-187.5"
       id="guide3404" />
    <sodipodi:guide
       position="-30.368697,140.46754"
       orientation="187.5,0"
       id="guide3406" />
  </sodipodi:namedview>
  <g
     id="g3422"
     transform="translate(-28.024947,-25.089533)">
    <path
       style="fill:#f2f2f2"
       d="m 50.493483,123.99686 c -4.430909,-2.04191 -6.709829,-3.49031 -9.959972,-6.33022 -0.67514,-0.58992 -1.733778,-1.40965 -2.352528,-1.82162 -1.612356,-1.07351 -4.679802,-2.57037 -7,-3.41586 -4.38725,-1.59873 -5.348256,-1.96933 -6.821815,-2.63074 -2.968814,-1.33255 -4.234769,-2.18494 -7.914586,-5.32901 l -0.384084,-0.32817 4.560243,-0.0886 c 4.617642,-0.0897 6.957403,-0.27477 7.324427,-0.57937 0.585859,-0.48622 -0.448821,-3.46252 -4.015484,-11.550728 -0.939818,-2.13125 -1.738018,-3.97209 -1.773777,-4.090756 -0.08804,-0.292151 -6.402994,-4.16656 -8.684599,-5.328252 -1.803045,-0.918032 -1.840198,-0.930518 -2.155057,-0.724214 -0.374869,0.245624 -1.3270197,2.142561 -2.0482827,4.080722 -0.8544842,2.29615 -1.5525299,3.450957 -2.2641837,3.745733 -1.3852605,0.573794 -2.609027,-2.76004 -3.0038587,-8.183233 -0.070074,-0.9625 -0.1865369,-2.565625 -0.258806,-3.5625 C 3.5092529,74.661715 2.8902749,72.29843 1.829632,70.561927 0.8118941,68.89567 0.64945679,68.583281 0.37800869,67.770266 -0.0966094,66.348734 0.07318667,65.00006 0.83948368,64.104814 1.3568713,63.500362 1.7890434,63.272334 3.4309831,62.737449 c 0.6875,-0.223963 1.3138555,-0.470805 1.391901,-0.54854 0.078046,-0.07774 1.5638852,-3.25793 3.3018657,-7.0671 3.0091482,-6.595216 3.1540572,-6.947204 3.0361902,-7.375 -0.197925,-0.718368 -2.8446449,-7.011736 -2.9488339,-7.011736 -0.2120851,0 -3.8426955,4.707696 -5.1574497,6.6875 -1.4079396,2.120126 -1.9761375,2.815053 -2.15443036,2.634953 -0.20987804,-0.212005 -0.0563492,-2.295321 0.27708776,-3.759953 1.357282,-5.961907 4.820348,-13.79088 8.6256245,-19.5 3.5670737,-5.35174 9.9079977,-12.495618 12.1968957,-13.741393 0.8504,-0.462846 1.049395,-0.372769 0.954095,0.431884 -0.100905,0.851991 -0.741361,2.166765 -2.75571,5.657126 -0.943552,1.63494 -1.74726,3.055253 -1.786017,3.15625 -0.100035,0.260686 0.242921,0.24425 4.147834,-0.198786 2.666011,-0.302476 3.422923,-0.428604 3.620788,-0.603351 0.648024,-0.572312 12.1591,-11.391704 12.403643,-11.6583264 L 38.862951,9.5373485 37.435204,7.9174606 C 35.936781,6.217384 35.088207,4.9680059 35.146388,4.5475727 c 0.02543,-0.1837469 0.189504,-0.2882388 0.619131,-0.3942905 0.858349,-0.21188 3.589792,-0.5021998 7.415464,-0.7881752 7.802668,-0.5832625 12.494966,-1.1847453 16.75,-2.1471008 4.652667,-1.05228782 8.102279,-1.302545 12.6875,-0.92043354 1.203125,0.10026297 2.271875,0.18594123 2.375,0.19039617 0.103125,0.004455 -1.941475,1.08008807 -4.543556,2.39029587 -2.671574,1.3451992 -4.683862,2.4293906 -4.62264,2.4906118 0.183868,0.1838689 6.009426,2.7201398 7.728696,3.3648401 0.89375,0.3351427 2.103125,0.729075 2.6875,0.8754052 2.074805,0.5195412 2.228992,0.6761182 2.33908,2.3753412 0.04011,0.619085 0.0377,1.12561 -0.0054,1.12561 -0.04306,0 -0.796696,-0.118624 -1.674752,-0.263608 -1.419835,-0.234444 -1.921465,-0.255785 -4.533965,-0.1929 -3.11358,0.07495 -4.271979,0.181449 -9.75,0.896409 -1.890625,0.246754 -3.703909,0.481464 -4.029519,0.521577 l -0.592018,0.07293 -1.985103,5.014044 c -1.091806,2.757724 -2.391437,6.057185 -2.888069,7.332136 l -0.902965,2.318094 1.117174,1.744406 c 1.39351,2.17589 7.650387,11.806029 8.454367,13.012356 l 0.595123,0.892949 0.771755,-0.178467 c 1.099967,-0.254368 10.681107,-2.777024 14.459255,-3.807035 5.330375,-1.453185 7.210076,-2.147418 8.951331,-3.306009 1.79331,-1.193228 2.67287,-2.269544 7.241533,-8.861456 l 1.727181,-2.49207 -0.928773,-0.857257 c -4.44789,-4.105402 -7.023563,-6.311442 -10.553772,-9.039205 -2.674389,-2.066478 -3.8125,-3.142177 -3.8125,-3.603426 0,-0.504593 0.376639,-0.622059 1.742092,-0.543322 2.14338,0.123596 4.259897,0.695228 12.38695,3.345492 2.941997,0.959396 5.403385,1.744358 5.46975,1.744358 0.07116,0 0.143015,-0.936014 0.175135,-2.28125 0.0442,-1.850488 0.0955,-2.359176 0.27181,-2.693931 0.4439,-0.842895 0.91585,-0.700629 2.31998,0.699342 1.21191,1.208326 1.65724,1.779677 4.69671,6.025839 2.62428,3.666137 5.01892,6.791345 8.17687,10.671503 2.94063,3.613153 4.0584,5.077807 5.26359,6.897127 1.27358,1.922561 1.51262,2.486558 1.5918,3.755677 0.036,0.577881 0.0403,1.050693 0.009,1.050693 -0.0309,0 -1.57161,-0.782293 -3.42387,-1.738428 -3.41938,-1.765077 -3.70605,-1.895774 -3.79,-1.727897 -0.0739,0.147773 0.0645,1.378158 1.05716,9.398573 0.51017,4.122112 0.92759,7.567424 0.92759,7.65625 0,0.218455 -1.00932,0.213494 -1.53526,-0.0076 -0.91627,-0.385075 -2.14574,-2.124312 -4.03356,-5.705948 -2.83362,-5.376035 -4.37478,-7.906998 -6.43393,-10.566054 l -1.03696,-1.339066 -0.63639,0.07595 c -0.35002,0.04178 -3.814522,0.443482 -7.698897,0.89268 -3.884375,0.4492 -7.239731,0.857735 -7.456348,0.907857 -0.583886,0.135101 -4.736376,4.637218 -7.866311,8.52863 -1.931935,2.401952 -5.529294,7.289268 -7.644705,10.385978 l -0.391752,0.573479 2.076022,2.239021 c 1.141813,1.231462 4.512375,4.836443 7.490139,8.011069 2.977764,3.174626 5.544394,5.923506 5.703624,6.108621 0.283436,0.329514 0.368023,0.345856 4.03317,0.779193 3.486223,0.412182 4.01013,0.443393 7.618661,0.453878 l 3.874997,0.01126 1.89452,-0.477641 c 1.04199,-0.262702 1.97913,-0.543952 2.08254,-0.625 0.10341,-0.08105 0.7233,-1.441109 1.37754,-3.022359 3.69278,-8.925154 5.93596,-13.701519 7.00857,-14.92323 0.31505,-0.358847 1.31312,-0.830165 1.44473,-0.682242 0.0516,0.05801 0.15963,0.752347 0.24003,1.542972 0.49718,4.888456 1.53304,14.244184 1.61024,14.543362 0.0902,0.349609 0.15732,0.29507 3.81804,-3.103285 3.58637,-3.329337 3.72301,-3.4412 3.64114,-2.980862 -1.04716,5.888792 -1.67464,7.820156 -4.52109,13.915785 -2.31318,4.953655 -3.46329,7.906752 -5.03863,12.9375 -1.21685,3.885927 -2.3077,6.6875 -2.60391,6.6875 -0.19539,0 -1.07864,-0.711803 -1.64377,-1.324695 -0.31077,-0.337045 -1.14337,-1.30187 -1.85022,-2.144058 -0.70684,-0.842187 -1.32313,-1.53125 -1.36953,-1.53125 -0.0464,0 -2.2513,1.064599 -4.89978,2.365777 -2.64848,1.301177 -5.597946,2.710681 -6.55437,3.132231 -1.681973,0.74134 -4.861896,1.87699 -5.255746,1.87699 -0.170562,0 -0.192801,0.58421 -0.192801,5.06488 l 0,5.06488 0.34375,-0.0847 c 0.996807,-0.24568 4.941467,-1.47578 5.999521,-1.87088 0.670576,-0.2504 2.119226,-0.87589 3.219226,-1.38997 2.43879,-1.13976 3.1075,-1.40919 3.49754,-1.40919 0.31774,0 0.68996,0.41105 0.68996,0.76192 0,0.33366 -1.71451,1.86595 -3.51526,3.14165 -4.731393,3.35185 -12.379003,7.82803 -16.359737,9.57543 -2.943155,1.29194 -7.80818,2.44666 -12.6875,3.01138 -1.287604,0.14903 -9.837425,0.77636 -9.888244,0.72555 -0.01846,-0.0185 1.720713,-0.84195 3.864836,-1.82996 2.144124,-0.98801 3.948677,-1.84149 4.010117,-1.89663 0.129157,-0.11592 0.270015,0.007 -3.934044,-3.4419 l -3.217823,-2.64007 -6.709238,-0.0931 c -3.755906,-0.0521 -6.751336,-0.0455 -6.804875,0.0151 -0.0526,0.0595 0.11908,1.45818 0.381511,3.10818 0.508068,3.19441 0.904416,6.3238 0.838028,6.61669 -0.03021,0.13328 -0.430515,-0.002 -1.602768,-0.5424 z M 83.6352,110.59575 c 5.108063,-6.00418 8.389762,-10.33828 14.975494,-19.777976 l 1.294025,-1.854798 -0.424367,-0.411791 c -6.644699,-6.447761 -12.58059,-12.112981 -12.785049,-12.20206 -0.145376,-0.06334 -4.229945,-1.0161 -9.07682,-2.117248 -4.846875,-1.101147 -9.848861,-2.237602 -11.115524,-2.525455 l -2.303024,-0.52337 -0.857317,0.93226 c -1.774208,1.9293 -3.4286,4.64963 -8.660202,14.240038 l -2.213533,4.057777 -0.798737,7.817223 c -0.439307,4.29947 -0.799397,7.99993 -0.800202,8.22324 l -0.0015,0.40602 6.65625,3.34398 6.65625,3.34398 8.1875,0.0643 c 4.503125,0.0354 8.279397,0.0776 8.391717,0.0937 0.130794,0.0189 1.164477,-1.09925 2.875,-3.10985 z M 39.597152,97.528815 c 3.950501,-2.32928 5.548174,-3.567508 8.990081,-6.967494 1.785014,-1.763272 2.53125,-2.582466 2.53125,-2.778722 0,-0.297029 -2.865224,-21.333183 -2.910602,-21.369315 -0.372972,-0.296979 -17.725904,-7.428673 -18.072818,-7.427551 -0.171112,5e-4 -9.57333,9.420171 -12.318549,12.341346 l -0.850023,0.904506 1.214487,3.220494 c 2.068003,5.483782 3.929749,8.936833 6.521406,12.095493 1.380269,1.682244 3.5439,3.85707 5.270119,5.297387 1.065261,0.888828 7.611676,5.75732 7.749649,5.763322 0.02264,10e-4 0.866392,-0.484775 1.875,-1.079466 z M 19.368483,58.915971 c 4.054368,-0.470847 6.408743,-0.888973 9.4375,-1.676061 2.299916,-0.597681 5.588146,-1.592032 7.211323,-2.180681 2.326192,-0.8436 11.0955,-4.401079 11.271811,-4.572679 0.05947,-0.05788 0.382236,-1.947605 0.71725,-4.199379 0.335015,-2.251773 0.80872,-5.251863 1.052679,-6.666866 0.403147,-2.33832 1.863612,-9.74815 1.988672,-10.089745 0.05492,-0.150015 -0.783074,-1.282484 -5.21346,-7.045487 -3.06295,-3.984257 -3.529361,-4.5 -4.069561,-4.5 -0.65887,0 -2.557378,0.373273 -4.208714,0.827492 -1.472527,0.405036 -10.404102,3.512041 -10.976444,3.81835 -0.214973,0.11505 -10.667671,9.181429 -11.490296,9.966363 -0.375395,0.358196 -0.35322,0.17951 -1.056444,8.512795 -0.321223,3.806551 -0.321685,12.016931 -7.5e-4,13.75 0.427127,2.306661 0.851088,4.422547 0.902968,4.506492 0.02889,0.04674 0.180426,0.0641 0.336754,0.03857 0.156328,-0.02553 1.999858,-0.245649 4.096733,-0.489167 l -2.1e-5,0 z"
       id="path3600"
       inkscape:connector-curvature="0"
       transform="translate(28.024947,25.089533)" />
    <path
       style="fill:#f2f2f2"
       d="m 49.149574,123.25152 c -3.572103,-1.77809 -4.590475,-2.43621 -8.009735,-5.17628 -3.708238,-2.97165 -6.12984,-4.28284 -11.990265,-6.49219 -5.39676,-2.03455 -8.086864,-3.42992 -10.714823,-5.55783 l -2.089824,-1.69217 4.839824,-0.19282 c 2.661902,-0.10606 5.289823,-0.27794 5.839823,-0.38196 1.262902,-0.23886 1.359262,-0.71614 0.604507,-2.99418 -0.680502,-2.053911 -5.14396,-12.526729 -5.544536,-13.009394 -0.746549,-0.899535 -9.548474,-6.046645 -10.340196,-6.046645 -0.675804,0 -1.101233,0.650405 -2.2361243,3.418635 -1.4171143,3.45663 -2.0187193,4.37598 -2.8031113,4.28362 -0.4286527,-0.05048 -0.8183367,-0.35612 -1.1241237,-0.8817 -0.6782268,-1.16572 -1.3509673,-4.8865 -1.6705575,-9.239482 -0.345926,-4.71169 -0.682301,-6.07404 -2.2537147,-9.127753 -1.46621829,-2.849285 -1.71399832,-3.974307 -1.1648089,-5.288702 0.39082603,-0.935378 0.6435378,-1.096173 3.7353978,-2.376728 0.7460925,-0.30901 0.7002638,-0.221605 4.8698578,-9.28789 2.3680798,-5.149107 2.3746688,-5.25741 0.5741062,-9.4375 -0.7255397,-1.684374 -1.395127,-3.062499 -1.4879717,-3.062499 -0.216756,0 -3.5298198,4.263912 -5.3878498,6.934162 -0.7880505,1.132537 -1.5370067,2.123552 -1.6643472,2.202255 -0.71360817,0.441032 0.1062834,-4.143035 1.4238577,-7.960882 3.36282,-9.74422 8.7881266,-18.393404 16.2006586,-25.827573 2.530896,-2.538283 3.687104,-3.388147 4.077851,-2.997401 0.310405,0.310405 -0.499555,2.163551 -2.450135,5.60578 -1.116176,1.969738 -1.960244,3.650509 -1.875707,3.735046 0.190573,0.190573 6.538859,-0.414569 7.271597,-0.693155 0.503642,-0.191485 13.12035,-11.8948294 13.12035,-12.1705274 0,-0.071082 -0.523958,-0.7082697 -1.164353,-1.4159727 -1.329797,-1.46957 -2.623407,-3.3983815 -2.45834,-3.6654648 0.16855,-0.2727227 1.444125,-0.4312065 7.997693,-0.993674 7.924335,-0.6801152 11.5006,-1.1315305 15.874999,-2.0038269 6.258235,-1.24795097 9.409718,-1.48038534 13.99308,-1.03204544 l 1.61808,0.15827887 -4.343255,2.24999997 c -2.38879,1.2375 -4.340687,2.3625 -4.33755,2.5 0.0081,0.354825 5.421985,2.7474 8.760965,3.8717595 1.548978,0.521598 2.983353,1.0869829 3.1875,1.2564119 0.225605,0.187235 0.37118,0.74064 0.37118,1.41105 l 0,1.103 -1.3125,-0.196111 c -2.336982,-0.349186 -7.923325,-0.112038 -13.595602,0.577153 l -5.54214,0.673379 -2.902455,7.358621 -2.902455,7.358622 0.565078,0.93469 c 2.292432,3.791907 9.622727,14.775584 9.861189,14.775959 0.372698,5e-4 16.593345,-4.284197 18.953885,-5.006784 3.060995,-0.937005 5.292453,-2.1534 6.786695,-3.699515 0.75386,-0.78003 2.714138,-3.330735 4.356175,-5.668235 l 2.985523,-4.25 -1.189198,-1.102337 c -3.05345,-2.830426 -6.173702,-5.525953 -8.9298,-7.714286 -3.515415,-2.791228 -5.134395,-4.284406 -5.134395,-4.735429 0,-0.497425 2.720173,-0.40504 4.967305,0.168704 1.059085,0.270409 4.731675,1.388438 8.16131,2.48451 3.429633,1.096073 6.29067,1.937885 6.357863,1.870695 0.06719,-0.06719 0.182109,-1.157096 0.255379,-2.422011 0.13691,-2.363609 0.3016,-2.924846 0.85827,-2.924846 0.60473,0 3.29881,3.1282 6.52005,7.570684 1.77297,2.445127 5.13273,6.832626 7.46615,9.750001 5.41593,6.771317 6.86512,8.931582 7.13441,10.635047 0.13078,0.827323 0.11504,1.294268 -0.0436,1.294268 -0.13652,0 -1.62663,-0.73125 -3.31137,-1.625 -1.68474,-0.89375 -3.1875,-1.625 -3.33946,-1.625 -0.4186,0 -0.34927,1.016987 0.59653,8.749999 1.00916,8.25106 1.02316,8.5 0.47825,8.5 -1.30257,0 -2.63457,-1.697687 -5.4922,-7 -3.3998,-6.308314 -6.3798,-10.732429 -7.2366,-10.743502 -0.74434,-0.0096 -15.148792,1.718225 -15.649734,1.877218 -0.43003,0.136485 -3.2787,3.163265 -6.158168,6.543199 -2.576277,3.024048 -9.564375,12.46885 -9.564375,12.926783 0,0.309135 15.29301,16.521612 15.744205,16.6908 1.087398,0.40775 7.571988,0.955502 11.311753,0.955502 4.392409,0 7.209809,-0.499547 7.864119,-1.394367 0.17405,-0.238025 1.00671,-2.074793 1.85037,-4.081703 4.01,-9.539147 6.00835,-13.478975 7.08574,-13.969867 0.80385,-0.366263 0.68147,-0.971068 1.6584,8.195937 0.43227,4.05625 0.8826,7.477398 1.00073,7.60255 0.12509,0.13253 1.32779,-0.80703 2.88015,-2.25 3.46979,-3.225295 4.35453,-3.95437 4.35453,-3.588352 0,0.16533 -0.28969,1.59224 -0.64375,3.170912 -0.73338,3.269905 -1.63653,5.74578 -3.85386,10.56489 -2.132,4.633663 -2.77797,6.290348 -4.89371,12.550728 -1.00851,2.984152 -2.01681,5.779897 -2.24066,6.212772 l -0.40699,0.78704 -0.64563,-0.58777 c -0.35509,-0.323272 -1.04944,-1.035375 -1.54301,-1.582447 -0.49356,-0.54707 -1.29237,-1.426895 -1.77512,-1.955165 l -0.87774,-0.960488 -5.99726,2.858548 c -5.881227,2.803241 -9.728187,4.426781 -10.489202,4.426781 -0.33163,0 -0.383065,0.68816 -0.383065,5.125 0,2.81875 0.09824,5.125 0.218323,5.125 0.769937,0 6.491365,-1.97472 9.053764,-3.12485 3.29419,-1.4786 4.22791,-1.67814 4.22791,-0.90351 0,0.93104 -5.35101,4.76286 -12.244124,8.76793 -6.538838,3.79923 -9.504498,5.00699 -15.005873,6.1111 -3.079037,0.61795 -10.52995,1.41577 -12.907157,1.38206 l -1.217843,-0.0173 3.610123,-1.73867 c 3.117157,-1.50126 3.560947,-1.78664 3.25,-2.08989 -0.198068,-0.19317 -1.870153,-1.59674 -3.715748,-3.11905 l -3.355625,-2.76784 -6.706875,0 -6.706874,0 0.0057,0.8125 c 0.0031,0.44688 0.225575,2.275 0.494255,4.0625 0.522815,3.47823 0.613045,4.88233 0.3125,4.86284 -0.103125,-0.007 -1.25625,-0.54415 -2.5625,-1.19437 l -5e-6,0 z m 32.544379,-10.25256 c 0.31934,-0.38999 1.98728,-2.38687 3.70653,-4.4375 4.098635,-4.88862 13.871978,-18.079779 14.384088,-19.414311 0.168162,-0.438223 -12.704853,-12.7556 -13.587593,-13.001108 -1.53257,-0.426242 -21.513142,-4.93799 -21.86821,-4.93799 -0.96536,0 -4.1387,4.891138 -9.261892,14.275555 l -2.675337,4.900555 -0.745273,7.349445 c -0.4099,4.042194 -0.74559,7.770904 -0.745982,8.286034 l -7.5e-4,0.93658 6.687499,3.36244 6.6875,3.36244 8.41938,0.0135 8.41938,0.0135 0.58062,-0.70909 4e-5,0 z M 42.487401,95.770599 c 1.5323,-1.009995 3.653315,-2.778115 5.61369,-4.679685 l 3.15086,-3.056345 -1.448995,-10.72576 C 48.735244,69.405384 48.255484,66.505771 47.979714,66.289364 47.613421,66.001919 38.178246,62.043096 32.822481,59.929671 l -2.702092,-1.066265 -6.655409,6.655408 -6.655407,6.655407 1.703599,4.273503 c 3.713447,9.315237 6.982644,13.365932 16.229004,20.108532 l 2.9676,2.164025 1.1574,-0.663172 c 0.636568,-0.364743 2.26567,-1.393673 3.620225,-2.28651 z M 19.774574,58.943906 c 8.308902,-1.066 14.001615,-2.71142 24.473885,-7.07392 1.498137,-0.624087 2.823577,-1.234397 2.945425,-1.356245 0.121845,-0.121845 0.774407,-3.531097 1.450137,-7.576115 0.67573,-4.045014 1.51687,-8.752854 1.869198,-10.461862 l 0.640595,-3.107285 -2.56462,-3.389497 c -5.636935,-7.449979 -6.138695,-8.02093 -7.04891,-8.02093 -1.344033,0 -5.19166,1.087438 -10.310578,2.914035 l -4.794867,1.710965 -5.705133,4.966575 c -3.137823,2.731615 -5.783257,5.101082 -5.878742,5.26548 -0.09549,0.164397 -0.368294,2.26069 -0.606242,4.658425 -0.546053,5.502419 -0.621223,15.823689 -0.133713,18.359519 0.593093,3.08503 0.777195,3.625035 1.235701,3.62452 0.235325,-2.65e-4 2.227864,-0.231412 4.427864,-0.513665 z"
       id="path3602"
       inkscape:connector-curvature="0"
       transform="translate(28.024947,25.089533)" />
    <path
       style="fill:#e6e6e6;image-rendering:auto"
       d="m 64.478065,124.36801 c 3.816636,-1.78939 7.012476,-3.42946 6.978055,-3.58106 -0.02231,-0.0982 -1.574536,-1.44108 -3.449401,-2.98409 -3.099335,-2.55074 -3.461268,-2.81266 -3.986196,-2.8846 -0.317543,-0.0435 -3.382,-0.0791 -6.809904,-0.0791 l -6.232554,0 3.75e-4,0.59375 c 2.5e-4,0.32656 0.22523,2.21374 0.5,4.19373 0.274813,1.97998 0.499625,3.88452 0.499625,4.2323 0,0.62684 -0.003,0.63159 -0.34375,0.54829 -0.581932,-0.14225 -4.091271,-1.88689 -5.645551,-2.80664 -1.599583,-0.94655 -3.209475,-2.11274 -5.260699,-3.81081 -2.699376,-2.23462 -5.181069,-3.64445 -9.125,-5.18383 -5.720969,-2.23299 -6.916114,-2.72301 -8.147562,-3.34061 -2.306868,-1.15693 -3.779088,-2.14272 -6.064253,-4.06059 l -1.149314,-0.96459 2.086814,-0.0794 c 8.570968,-0.32619 9.186426,-0.37915 9.590139,-0.82525 0.172475,-0.19059 0.201755,-0.36599 0.138332,-0.82872 -0.170598,-1.24465 -1.502767,-4.649084 -4.566771,-11.670649 l -1.392256,-3.190542 -2.107973,-1.33569 c -3.895532,-2.468357 -7.764084,-4.595728 -8.357174,-4.595728 -0.494729,0 -1.07081,0.97929 -2.2837092,3.882115 -1.2174413,2.913695 -1.9404822,3.992885 -2.6751731,3.992885 -0.3103592,0 -0.925343,-0.604119 -1.2423869,-1.220438 C 4.7861706,87.113653 4.3534427,84.694292 3.9173556,79.901621 3.3623962,73.802522 3.0554157,72.612649 1.2236194,69.460554 0.57259077,68.340286 0.22806524,67.255638 0.22806524,66.326316 c 0,-1.799804 0.60425125,-2.55438 2.68749996,-3.356093 0.75625,-0.291034 1.5085559,-0.61422 1.6717909,-0.718192 0.3285676,-0.209279 1.4146117,-2.398553 3.8822827,-7.825997 2.1817392,-4.79856 2.4296502,-5.461845 2.4385762,-6.524413 0.0067,-0.800783 -0.06555,-1.055244 -0.852161,-3 -0.4727317,-1.16875 -1.0817449,-2.603125 -1.3533632,-3.1875 l -0.4938513,-1.0625 -0.4416182,0.5 c -0.748373,0.847307 -2.6780574,3.38839 -4.4139818,5.8125 -1.6938851,2.365405 -2.2052514,3 -2.41744326,3 -0.18272019,0 -5.8083e-4,-2.252929 0.29306526,-3.625 C 2.3077571,41.297946 5.7160415,33.344808 9.0585087,28.068856 12.642433,22.411773 19.307458,14.715787 21.94947,13.183891 c 0.789766,-0.457924 0.904033,-0.442209 0.901493,0.12398 -0.0031,0.700547 -0.661513,2.184126 -2.204989,4.96875 -1.810623,3.266588 -2.074268,3.800481 -1.987893,4.025572 0.05984,0.155933 0.246705,0.17326 1.102268,0.102208 2.22468,-0.184754 5.866394,-0.696443 6.189454,-0.869665 0.469608,-0.251802 1.416578,-1.111539 7.559512,-6.863154 2.939063,-2.751838 5.34375,-5.0543206 5.34375,-5.1166285 0,-0.062308 -0.382702,-0.5441724 -0.85045,-1.07081 -1.662246,-1.8715269 -2.77455,-3.3930065 -2.77455,-3.7952063 0,-0.5437599 0.830083,-0.6729331 8.6875,-1.3519041 8.193458,-0.7080086 10.68242,-1.0355912 16.5,-2.1716331 1.58125,-0.30878235 3.38125,-0.63389095 4,-0.72246351 2.074015,-0.29689016 10.548895,-0.1652104 10.224815,0.15886962 -0.06158,0.0615848 -1.684237,0.93243469 -3.605894,1.93522179 -3.710838,1.9364442 -4.931421,2.629711 -4.931421,2.8009483 0,0.3918049 5.028999,2.5514379 9.488994,4.0749152 1.265821,0.4323885 2.409111,0.8937796 2.540645,1.0253126 0.257556,0.257556 0.53373,1.879338 0.394655,2.317528 -0.06945,0.21881 -0.147935,0.229302 -0.968683,0.129495 -1.543705,-0.187721 -8.927965,-0.101108 -10.830611,0.127039 -5.942111,0.712517 -8.56875,1.100151 -8.711261,1.285585 -0.13413,0.174531 -4.689449,11.49183 -5.47198,13.594666 l -0.322228,0.865896 1.338145,2.134104 c 3.097572,4.940082 8.339274,12.851299 8.775467,13.244672 0.331047,0.298549 0.501535,0.266823 5.344152,-0.994498 9.272971,-2.415264 14.026025,-3.762628 16.110205,-4.566813 3.489556,-1.346452 4.669989,-2.54043 9.86044,-9.973581 l 1.954722,-2.799324 -0.970081,-0.899029 c -2.760865,-2.55865 -5.700286,-5.085208 -9.595081,-8.247382 -1.5125,-1.227995 -3.115625,-2.555556 -3.5625,-2.950135 -1.596375,-1.409557 -1.565099,-1.867306 0.127583,-1.867306 1.946721,0 4.160646,0.573688 12.826323,3.323647 2.498279,0.792803 4.737243,1.47309 4.975476,1.51175 0.533817,0.08663 0.511974,0.168961 0.680503,-2.565227 0.13708,-2.223999 0.26857,-2.64517 0.82581,-2.64517 0.41593,0 1.43774,0.857456 2.5255,2.119283 0.49428,0.573378 2.23694,2.866539 3.87258,5.095914 2.93907,4.005931 4.53446,6.082849 9.29122,12.095504 3.08121,3.894711 4.37237,5.706806 5.07809,7.126905 0.5295,1.065492 0.55714,1.173432 0.52177,2.03719 l -0.0374,0.912084 -3.22014,-1.63094 c -1.77108,-0.897018 -3.33202,-1.63094 -3.46875,-1.63094 -0.2195,0 -0.24861,0.08469 -0.24861,0.723258 0,0.397793 0.31121,3.336855 0.69156,6.53125 0.96775,8.127493 1.1217,9.598903 1.01545,9.705154 -0.0512,0.05116 -0.31233,0.08428 -0.58036,0.07359 -1.39604,-0.05567 -2.1634,-1.055699 -5.59307,-7.2889 -3.18673,-5.791688 -5.78663,-9.7108 -6.80283,-10.254654 -0.15208,-0.08139 -2.40759,0.140569 -7.132828,0.70193 -8.945384,1.062717 -8.409152,0.980185 -8.991782,1.383947 -0.762164,0.52818 -4.150649,4.206102 -6.593582,7.156792 -2.627742,3.17391 -8.762553,11.588981 -8.762553,12.019523 0,0.252735 14.601926,15.830552 15.341201,16.366498 0.348745,0.252829 0.773132,0.355206 2.446617,0.590215 3.314659,0.46548 5.390492,0.572994 9.871707,0.511284 4.06125,-0.05593 4.17739,-0.06457 5.25844,-0.391384 0.608,-0.183808 1.25759,-0.412865 1.44353,-0.509019 0.45874,-0.237224 0.73144,-0.77926 2.61334,-5.194482 2.26082,-5.304237 3.02101,-7.008587 4.15367,-9.3125 1.48023,-3.010909 2.08047,-3.813957 3.07532,-4.114435 0.24862,-0.07509 0.27548,-0.01575 0.40378,0.891996 0.0756,0.534841 0.42043,3.531814 0.7663,6.659939 0.65355,5.91088 0.83615,7.450985 0.95221,8.03125 0.14368,0.718393 0.21391,0.665911 5.36017,-4.005877 1.08275,-0.982918 1.99641,-1.759338 2.03038,-1.725378 0.1898,0.189805 -0.97188,5.22509 -1.68994,7.325005 -0.62013,1.813525 -1.01539,2.759057 -2.89958,6.936328 -2.2438,4.974532 -2.91723,6.734647 -5.55939,14.530353 -1.11203,3.281037 -1.61792,4.512447 -1.89797,4.619912 -0.27386,0.105091 -1.10917,-0.65656 -2.89441,-2.63919 -0.93349,-1.036697 -1.77525,-1.932222 -1.87059,-1.990056 -0.22259,-0.135029 -0.5098,-0.0099 -5.90479,2.572941 -5.89034,2.819971 -6.950804,3.283601 -9.55895,4.179131 -0.68555,0.23539 -1.289375,0.4955 -1.341835,0.57803 -0.114188,0.17964 -0.130118,9.14684 -0.017,9.5694 0.07143,0.26685 0.126433,0.28673 0.588686,0.21281 1.354743,-0.21663 6.224913,-1.98261 9.807178,-3.5562 2.00343,-0.88005 2.58165,-1.02873 2.87192,-0.73846 0.32433,0.32433 0.15039,0.69435 -0.70629,1.5025 -3.34023,3.15101 -14.435923,9.87459 -19.72318,11.95153 -3.59822,1.41345 -8.450052,2.44445 -13.608025,2.89166 -2.909037,0.25222 -6.507332,0.50242 -7.125,0.49541 l -0.625,-0.007 0.4375,-0.20511 0,-1e-5 z m 17.648414,-11.99764 c 4.199985,-4.77365 8.704291,-10.53449 13.56079,-17.343749 3.228723,-4.526965 4.064235,-5.791733 3.986933,-6.035284 C 99.515544,88.491444 87.878164,77.228117 86.655713,76.391291 86.512794,76.293456 81.452588,75.085362 75.41081,73.706638 65.849501,71.524764 64.387845,71.220159 64.133226,71.356428 c -0.321687,0.172161 -1.324222,1.286214 -2.121686,2.357693 -1.114252,1.497117 -3.663481,5.881352 -7.66277,13.178643 l -1.913326,3.491145 -0.669679,6.633855 c -0.368322,3.648626 -0.682171,7.381216 -0.697439,8.294656 l -0.02776,1.6608 6.4375,3.2767 6.4375,3.2767 4.1875,0.0658 c 2.303125,0.0362 6.134571,0.0784 8.514324,0.0937 l 4.326825,0.028 1.182265,-1.34375 z M 39.82804,97.412712 c 2.166193,-1.292211 4.391876,-2.839784 5.650025,-3.928599 1.294424,-1.120207 5.488448,-5.286672 5.565261,-5.528692 0.08793,-0.277042 -0.09261,-1.758817 -1.255407,-10.3038 -1.168259,-8.585098 -1.51169,-10.782875 -1.739236,-11.130154 -0.217885,-0.332535 -2.174579,-1.205345 -8.90916,-3.974054 -5.915193,-2.431842 -8.558905,-3.458292 -8.907139,-3.458292 -0.260415,0 -9.070286,8.624106 -11.91452,11.663288 l -1.381124,1.475789 0.789656,2.086711 c 2.233433,5.901974 3.938317,9.270018 6.237294,12.321934 1.055189,1.400775 3.480926,3.959168 5.264375,5.552266 1.355153,1.210515 8.219453,6.400012 8.465483,6.400012 0.08933,0 1.049855,-0.529384 2.134492,-1.176409 z M 19.110606,58.968324 c 5.178397,-0.655345 8.303457,-1.273482 12.396843,-2.452096 3.236106,-0.931776 8.303625,-2.820366 13.868677,-5.168652 l 1.835562,-0.774553 0.187256,-0.835701 c 0.102991,-0.459636 0.611354,-3.395076 1.129695,-6.523201 0.518342,-3.128125 1.226802,-7.145372 1.574357,-8.927214 0.347555,-1.781843 0.68692,-3.627531 0.754145,-4.10153 0.12065,-0.850691 0.117087,-0.869381 -0.276093,-1.447786 -1.460925,-2.149165 -7.566815,-9.982299 -8.072694,-10.356312 -0.193966,-0.143405 -0.525216,-0.298635 -0.736111,-0.344955 -0.428764,-0.09417 -2.251384,0.244854 -3.993332,0.742802 -2.678313,0.765613 -10.754165,3.547287 -11.266435,3.880648 -0.27391,0.178248 -6.275412,5.359633 -9.753148,8.420362 -1.197059,1.053522 -1.820327,1.691267 -1.900427,1.944568 -0.113555,0.359095 -0.339975,2.253579 -0.627687,5.251917 -0.285226,2.972418 -0.377281,5.592443 -0.377706,10.750083 l -5e-4,5.375083 0.439762,2.062417 c 0.638866,2.995914 0.584311,2.874917 1.29628,2.874917 0.325379,0 1.910079,-0.166859 3.521556,-0.370797 z"
       id="path3606"
       inkscape:connector-curvature="0"
       transform="translate(28.024947,25.089533)" />
  </g>
</svg>
